<svg height="464pt" viewBox="0 -16 464 464" width="464pt" xmlns="http://www.w3.org/2000/svg"><path d="m424 300.300781c25.199219 13.398438 40 29.699219 40 47.199219 0 46.398438-103.898438 84-232 84s-232-37.601562-232-84c0-17.5 14.800781-33.699219 40-47.199219" fill="#d4eded"/><path d="m415.398438 337.800781c0-32.199219-81.796876-58.300781-182.699219-58.300781-100.902344 0-182.699219 26.101562-182.699219 58.300781s81.796875 58.300781 182.699219 58.300781c100.902343 0 182.699219-26.101562 182.699219-58.300781zm0 0" fill="#92d7e7"/><path d="m88 183.5h-48v160h384v-160zm0 0" fill="#fcec98"/><path d="m40 247.5h384v48h-384zm0 0" fill="#f4edcb"/><path d="m373 87.5c32 21.398438 51.199219 57.5 51 96h-384l208-99.699219" fill="#fffcf0"/><path d="m256 295.5v-48c0-8.800781 7.199219-16 16-16s16 7.199219 16 16v8c0 8.800781 7.199219 16 16 16s16-7.199219 16-16v-32c0-8.800781 7.199219-16 16-16s16 7.199219 16 16v8c0 8.800781 7.199219 16 16 16h4c6.601562 0 12-5.398438 12-12 0-11 9-20 20-20s20 9 20 20v-52h-384v40c0 8.800781 7.199219 16 16 16s16-7.199219 16-16 7.199219-16 16-16 16 7.199219 16 16v48c0 8.800781 7.199219 16 16 16s16-7.199219 16-16v-28c0-6.601562 5.398438-12 12-12s12 5.398438 12 12v4c0 8.800781 7.199219 16 16 16s16-7.199219 16-16v-24c0-8.800781 7.199219-16 16-16s16 7.199219 16 16v72c0 8.800781 7.199219 16 16 16" fill="#fff6d2"/><path d="m170.347656 153.835938 15.980469-15.980469 11.3125 11.3125-15.980469 15.980469zm0 0" fill="#3fa9f5"/><path d="m362.347656 149.164062 11.316406-11.3125 15.980469 15.980469-11.316406 11.3125zm0 0" fill="#3fa9f5"/><path d="m326.601562 303.5c15.199219-7.101562 33.097657-11 41-3.101562 12.5 12.5-4.5 49.703124-17 62.203124-8 8-19.703124 11.199219-30.601562 8.398438" fill="#c1272d"/><path d="m288 370.5c-11 2.800781-22.601562-.398438-30.601562-8.398438-12.5-12.5-29.5-49.703124-17-62.203124 8.101562-8.097657 26.601562-3.796876 42 3.601562" fill="#c1272d"/><path d="m318.101562 295.5c10.597657 13.898438 16.796876 30.601562 17.898438 48 0 17.699219-14.300781 32-32 32s-32-14.300781-32-32 14.300781-56 32-56c5.601562.5 10.699219 3.398438 14.101562 8" fill="#ed1c24"/><path d="m344.398438 79.5c0 26.894531-21.800782 48.699219-48.699219 48.699219-26.894531 0-48.699219-21.804688-48.699219-48.699219s21.804688-48.699219 48.699219-48.699219c26.898437 0 48.699219 21.804688 48.699219 48.699219zm0 0" fill="#c1272d"/><path d="m303.5 63.5h-15v-8c0-30.601562 24.898438-55.5 55.5-55.5v15c-22.300781 0-40.5 18.199219-40.5 40.5zm0 0"/><path d="m344 72.898438c12.5-4.597657 26.300781 1.800781 30.800781 14.300781 4.597657 12.5-1.800781 26.300781-14.300781 30.800781-5.398438 2-11.300781 2-16.699219-.101562 0 .5.199219 1 .199219 1.5 0 13.203124-10.699219 24-23.898438 24-6.703124 0-13.101562-2.796876-17.703124-7.699219-4.5 12.402343-18.199219 18.800781-30.597657 14.300781-7.402343-2.699219-12.902343-8.800781-14.902343-16.300781-12.296876 5-26.296876-.898438-31.296876-13.199219s.898438-26.300781 13.199219-31.300781 26.300781.902343 31.300781 13.199219c.398438.902343.699219 1.800781.898438 2.800781 9.199219-3.800781 19.800781-1.398438 26.5 6 4.398438-12.300781 17.800781-18.699219 30.101562-14.398438.199219.097657.296876.097657.5.199219 0-.5-.203124-1-.203124-1.5.101562-10.199219 6.5-19.199219 16.101562-22.601562zm0 0" fill="#f7a5aa"/></svg>