<?xml version="1.0"?>
<svg xmlns="http://www.w3.org/2000/svg" viewBox="0 0 64 64" width="512" height="512"><g id="flat"><rect x="8" y="31" width="48" height="18" style="fill:#ffd782"/><path d="M44,31H8v4a6,6,0,0,0,12,0,6,6,0,0,0,12,0,6,6,0,0,0,12,0,6,6,0,0,0,12,0V31Z" style="fill:#f98c96"/><polygon points="59 61 5 61 3 55 61 55 59 61" style="fill:#aeddd0"/><rect x="6" y="49" width="52" height="6" style="fill:#d3843d"/><path d="M49,17h2a0,0,0,0,1,0,0v0a6,6,0,0,1-6,6H43a0,0,0,0,1,0,0v0A6,6,0,0,1,49,17Z" transform="translate(94 40) rotate(-180)" style="fill:#3e8051"/><circle cx="43" cy="27" r="4" style="fill:#dd3e46"/><rect x="29" y="15" width="6" height="16" style="fill:#dc93bf"/><path d="M35,8a3,3,0,0,1-6,0c0-3,3-5,3-5S35,5,35,8Z" style="fill:#e97424"/><circle cx="22" cy="28" r="3" style="fill:#4f83d1"/><circle cx="16" cy="28" r="3" style="fill:#4f83d1"/><rect x="11" y="44" width="2" height="2" style="fill:#fff"/><rect x="19" y="42" width="2" height="2" style="fill:#fff"/><rect x="24" y="44" width="2" height="2" style="fill:#fff"/><rect x="33" y="43" width="2" height="2" style="fill:#fff"/><rect x="41" y="44" width="2" height="2" style="fill:#fff"/><rect x="51" y="44" width="2" height="2" style="fill:#fff"/><polygon points="35 25 29 27 29 21 35 19 35 25" style="fill:#dd3e46"/></g></svg>
