<svg xmlns="http://www.w3.org/2000/svg" viewBox="0 0 512 424.121"><path d="M260.58 56.03a121.419 125.854 0 0 1-.005.961" fill="#30faff" stroke="#0000ad"/><path d="M472.192 392.313a255.96 255.56 0 0 0-49.17-330.372 255.96 255.56 0 0 0-334.522.343 255.96 255.56 0 0 0-48.489 330.472" fill="#cbfeff"/><path d="M36.707 316.682c54.82 0 54.82 34 109.64 34 54.825 0 54.825-34 109.645-34 54.828 0 54.828 34 109.653 34 54.824 0 54.824-34 109.652-34" fill="#fff"/><path d="M504.5 409.186H7.5a7.5 7.5 0 0 0-7.5 7.5 7.5 7.5 0 0 0 7.5 7.5h497a7.5 7.5 0 0 0 7.5-7.5 7.5 7.5 0 0 0-7.5-7.5zm0 0" fill="#bad8e8"/><path d="M100.43 277.092c0-85.922 69.652-155.574 155.57-155.574 85.918 0 155.57 69.652 155.57 155.574zm0 0" fill="#89c8fd"/><path d="M256 121.518c-7.469 0-14.813.539-22 1.559 75.5 10.687 133.57 75.562 133.57 154.015h44c0-85.922-69.652-155.574-155.57-155.574zm0 0" fill="#60b6ff"/><path d="M207.672 242.112c-4.602-12.89 8.285-34.063-23.934-41.426-32.218-7.363-27.617-32.219-27.156-42.805l-2.312 1.508c-32.977 28.527-53.84 70.68-53.84 117.703h175.789c-1.957-32.117-63.965-22.156-68.547-34.98zm0 0M289.602 162.022c-.922 12.89 33.136 9.207 44.183 23.933 11.047 14.73 1.84 40.504 29.457 50.633 27.617 10.125 39.125-7.828 39.125-7.828l1.117-1.297c-15.66-46.562-52.754-83.265-99.554-98.406l-.063 2.129c.461 15.187-13.347 17.95-14.265 30.836zm0 0" fill="#baeb6c"/><path d="M303.93 129.057l-.063 2.129c.227 7.394-2.933 11.844-6.344 15.953 31.188 20.559 54.528 52.035 64.59 88.996.38.149.739.309 1.13.453 27.616 10.125 39.124-7.828 39.124-7.828l1.117-1.297c-15.66-46.562-52.754-83.265-99.554-98.406zm0 0" fill="#96d629"/><g><path d="M297.159 111.37c0 26.895-21.8 48.7-48.7 48.7-26.894 0-48.698-21.805-48.698-48.7 0-26.894 21.804-48.698 48.699-48.698 26.898 0 48.699 21.804 48.699 48.699zm0 0" fill="#ed1c24"/><path d="M256.26 95.37h-15v-8c0-30.6 24.899-55.5 55.5-55.5v15c-22.3 0-40.5 18.2-40.5 40.5zm0 0"/><path d="M296.76 104.77c12.5-4.598 26.301 1.8 30.801 14.3 4.598 12.5-1.8 26.3-14.3 30.8-5.399 2-11.301 2-16.7-.1 0 .5.2 1 .2 1.5 0 13.202-10.7 24-23.899 24-6.703 0-13.101-2.798-17.703-7.7-4.5 12.402-18.2 18.8-30.598 14.3a23.855 23.855 0 0 1-14.902-16.3c-12.297 5-26.297-.898-31.297-13.2-5-12.3.899-26.3 13.2-31.3 12.3-5 26.3.902 31.3 13.2.399.902.7 1.8.899 2.8 9.199-3.8 19.8-1.398 26.5 6 4.398-12.3 17.8-18.7 30.101-14.398.2.097.297.097.5.199 0-.5-.203-1-.203-1.5.102-10.2 6.5-19.2 16.102-22.602zm0 0" fill="#f7a5aa"/></g><g><path d="M475.098 414.155H36.902V306.412c0-16.46 13.348-29.808 29.809-29.808h378.578c16.461 0 29.809 13.348 29.809 29.808zm0 0" fill="#de9252"/><path d="M445.29 276.604h-48c16.46 0 29.808 13.348 29.808 29.812v107.739h48V306.416c0-16.464-13.348-29.812-29.809-29.812zm0 0" fill="#d9833b"/><path d="M445.29 276.604H66.71c-16.46 0-29.808 13.348-29.808 29.812v10.27c54.621.082 54.692 34 109.446 34 54.824 0 54.824-34 109.644-34 54.828 0 54.828 34 109.653 34 54.757 0 54.828-33.918 109.453-34v-10.27c0-16.464-13.348-29.812-29.809-29.812zm0 0" fill="#ffe" stroke="#d8d8cc"/><path d="M445.29 276.604h-48c16.46 0 29.808 13.348 29.808 29.812v23.23c11.777-6.937 25.09-12.925 48-12.96v-10.274c0-16.46-13.348-29.808-29.809-29.808zm0 0" fill="#fafaee" stroke="#d8d8cc" stroke-width=".8"/><g fill="#fafaee"><path d="M146.219 390.987c9.652 0 9.668-15 0-15-9.653 0-9.668 15 0 15zm0 0M219.586 369.565c9.652 0 9.668-15 0-15-9.652 0-9.668 15 0 15zm0 0M291.344 369.565c9.652 0 9.668-15 0-15-9.653 0-9.668 15 0 15zm0 0M71.781 369.565c9.653 0 9.668-15 0-15-9.652 0-9.668 15 0 15zm0 0M107.125 384.56c-71.417 26.774-35.708 13.388 0 0zM362.566 390.987c9.653 0 9.668-15 0-15-9.652 0-9.664 15 0 15zm0 0"/></g><g fill="#c4111c" fill-opacity=".718"><path d="M171.012 326.66c9.652 0 9.668-15 0-15-9.653 0-9.668 15 0 15zm0 0M255.467 299.694c9.653 0 9.668-15 0-15-9.652 0-9.668 15 0 15zm0 0M333.878 328.524c9.653 0 9.668-15 0-15-9.652 0-9.668 15 0 15zm0 0M88.812 309.674c9.653 0 9.668-15 0-15-9.652 0-9.668 15 0 15zm0 0M137.462 324.67c-71.416 26.774-35.708 13.387 0 0zM398.448 321.116c9.652 0 9.668-15 0-15-9.652 0-9.664 15 0 15zm0 0"/></g></g></svg>