<svg height="512pt" viewBox="0 -114 512 512" width="512pt" xmlns="http://www.w3.org/2000/svg"><path d="m469.3125 0h-65.363281l-23.195313 241.410156 88.558594-23.195312zm0 0" fill="#804111"/><path d="m403.949219 87.628906v-87.628906h-147.949219l-24.816406 117.503906c54.898437 2.675782 146.203125.464844 172.765625-29.875zm0 0" fill="#ffb655"/><path d="m42.6875 0v65.21875c21.570312 27.183594 65.46875 32.046875 102.234375 37.285156 36.355469 5.183594 78.347656 20.640625 111.078125 22.386719v-124.890625zm0 0" fill="#ffd399"/><path d="m403.949219 87.628906c-32.148438-1.96875-33.863281-22.574218-69.226563-22.574218-37.136718 0-37.136718 22.742187-74.273437 22.742187-1.554688 0-3.019531-.054687-4.449219-.132813l-18.035156 83.21875 165.984375-18.035156zm0 0" fill="#efe2dd"/><path d="m186.175781 65.054688c-37.132812 0-37.132812 22.742187-74.269531 22.742187-35.359375 0-37.074219-20.605469-69.21875-22.574219v87.628906l213.3125 22.457032v-87.640625c-32.730469-1.746094-34.242188-22.613281-69.824219-22.613281zm0 0" fill="#fff5f5"/><path d="m403.949219 218.214844v-65.363282h-147.949219l-21.203125 86.566407zm0 0" fill="#ff4a4a"/><path d="m42.6875 218.214844 213.3125 26.425781v-91.789063h-213.3125zm0 0" fill="#ff946a"/><path d="m512 218.214844h-256l-20.015625 32.679687 20.015625 32.683594h234.210938zm0 0" fill="#efe2dd"/><path d="m0 218.214844 21.789062 65.363281h234.210938v-65.363281zm0 0" fill="#fff5f5"/></svg>