<?xml version="1.0" encoding="iso-8859-1"?>
<!-- Generator: Adobe Illustrator 19.0.0, SVG Export Plug-In . SVG Version: 6.00 Build 0)  -->
<svg xmlns="http://www.w3.org/2000/svg" xmlns:xlink="http://www.w3.org/1999/xlink" version="1.1" id="Layer_1" x="0px" y="0px" viewBox="0 0 475.3 475.3" style="enable-background:new 0 0 475.3 475.3;" xml:space="preserve" width="512" height="512">
<g>
	<g>
		<path style="fill:#F8A73D;" d="M423.34,218.07v224.58c0,18.03-14.62,32.65-32.65,32.65H84.61c-18.03,0-32.65-14.62-32.65-32.65    V218.07H423.34z"/>
		<path style="fill:#F38531;" d="M423.34,218.07v224.58c0,18.03-14.62,32.65-32.65,32.65H237.65V218.07H423.34z"/>
		<path style="fill:#FFE6B9;" d="M461.47,190.16c0,0,0,50.23,0,51.76c0,12.36-5.01,23.55-13.11,31.65s-19.29,13.11-31.65,13.11    c-24.73,0-44.77-20.04-44.77-44.76v68.98c0,12.36-5.01,23.55-13.11,31.65c-8.1,8.1-19.29,13.11-31.65,13.11    c-24.72,0-44.77-20.04-44.77-44.76v-68.98c0,12.36-5.01,23.55-13.11,31.65c-8.1,8.1-19.29,13.11-31.65,13.11    c-24.72,0-44.76-20.04-44.76-44.76v32.05c0,12.36-5.01,23.55-13.12,31.65c-8.1,8.1-19.29,13.11-31.65,13.11    c-24.72,0-44.76-20.04-44.76-44.76v-32.05c0,12.36-5.01,23.55-13.11,31.65c-8.1,8.1-19.3,13.11-31.66,13.11    c-24.72,0-44.76-20.04-44.76-44.76V190.2c0-40.57,32.89-73.42,73.42-73.42h300.8C428.59,116.78,461.45,149.63,461.47,190.16z"/>
		<path style="fill:#FFCD76;" d="M461.47,190.16c0,0,0,50.23,0,51.76c0,12.36-5.01,23.55-13.11,31.65s-19.29,13.11-31.65,13.11    c-24.73,0-44.77-20.04-44.77-44.76v68.98c0,12.36-5.01,23.55-13.11,31.65c-8.1,8.1-19.29,13.11-31.65,13.11    c-24.72,0-44.77-20.04-44.77-44.76v-68.98c0,12.36-5.01,23.55-13.11,31.65c-8.1,8.1-19.29,13.11-31.65,13.11v-169.9h150.4    C428.59,116.78,461.45,149.63,461.47,190.16z"/>
		<g>
			<path style="fill:#ED484B;" d="M302.35,97.05c0,35.73-28.97,51.71-64.7,51.71s-64.7-15.98-64.7-51.71S201.92,0,237.65,0     S302.35,61.32,302.35,97.05z"/>
		</g>
		<path style="fill:#D92E2F;" d="M302.35,97.05c0,35.73-28.97,51.71-64.7,51.71V0C273.38,0,302.35,61.32,302.35,97.05z"/>
	</g>
	<g>
		<g>
			<path style="fill:#FFE6B9;" d="M107.044,369.481H88.63c-8.428,0-15.26,6.832-15.26,15.26s6.832,15.26,15.26,15.26h18.415     c8.428,0,15.26-6.832,15.26-15.26S115.472,369.481,107.044,369.481z"/>
			<path style="fill:#FFE6B9;" d="M262.12,365.44c0,8.43-6.83,15.26-15.26,15.26h-18.42c-8.43,0-15.26-6.83-15.26-15.26     c0-8.42,6.83-15.26,15.26-15.26h18.42C255.29,350.18,262.12,357.02,262.12,365.44z"/>
			<path style="fill:#FFCD76;" d="M262.12,365.44c0,8.43-6.83,15.26-15.26,15.26h-9.21v-30.52h9.21     C255.29,350.18,262.12,357.02,262.12,365.44z"/>
			<path style="fill:#FFE6B9;" d="M191.301,418.962h-18.415c-8.428,0-15.26,6.832-15.26,15.26s6.832,15.26,15.26,15.26h18.415     c8.428,0,15.26-6.832,15.26-15.26S199.729,418.962,191.301,418.962z"/>
			<path style="fill:#FFCD76;" d="M365.984,409.059h-18.415c-8.428,0-15.26,6.832-15.26,15.26s6.832,15.26,15.26,15.26h18.415     c8.428,0,15.26-6.832,15.26-15.26S374.412,409.059,365.984,409.059z"/>
		</g>
	</g>
</g>















</svg>
