<?xml version="1.0" encoding="iso-8859-1"?>
<!-- Generator: Adobe Illustrator 21.0.0, SVG Export Plug-In . SVG Version: 6.00 Build 0)  -->
<svg xmlns="http://www.w3.org/2000/svg" xmlns:xlink="http://www.w3.org/1999/xlink" version="1.1" id="Capa_1" x="0px" y="0px" viewBox="0 0 511.998 511.998" style="enable-background:new 0 0 511.998 511.998;" xml:space="preserve" width="512" height="512">
<g>
	<path style="fill:#00B6BE;" d="M388.374,95.576c-1.863-8.072-9.919-13.104-17.989-11.243c-11.843,2.734-23.94,0.885-34.18-4.903   l25.154-25.154c5.858-5.858,5.858-15.355,0-21.213c-5.857-5.858-15.355-5.858-21.213,0l-24.162,24.162   c-3.835-8.601-5.11-18.268-3.431-27.786c1.44-8.158-4.006-15.939-12.165-17.379c-8.156-1.438-15.939,4.007-17.378,12.165   c-4.189,23.74,11.093,58.029,20.125,67.062c10.936,10.936,35.949,24.303,56.306,24.303c5.87,0,11.802-0.666,17.69-2.025   C385.204,111.702,390.238,103.647,388.374,95.576z"/>
	<g>
		<path style="fill:#BA5F19;" d="M496.998,500.168H15c-8.284,0-15-6.716-15-15v-247c0-3.979,1.581-7.793,4.394-10.607    c2.813-2.813,6.628-4.393,10.607-4.393l481.998,0.01c8.284,0,15,6.716,15,15v246.99    C511.998,493.452,505.282,500.168,496.998,500.168z"/>
	</g>
	<path style="fill:#8D4813;" d="M496.998,223.178l-241-0.005v276.995h241c8.284,0,15-6.716,15-15v-246.99   C511.998,229.894,505.282,223.178,496.998,223.178z"/>
	<path style="fill:#F5A1CA;" d="M77.592,300.888c-25.136,0-48.405-10.313-67.213-18.648c-5.058-2.241-8.471-7.084-8.881-12.601   c-5.027-67.57,2.611-117.478,24.038-157.063c24.309-44.909,66.903-76.792,130.217-97.471c4.214-1.376,8.819-0.819,12.582,1.523   c55.91,34.787,113.017,70.16,168.243,104.369c55.255,34.227,112.392,69.619,168.345,104.433c4.4,2.738,7.076,7.553,7.076,12.736   v22.109c0,4.922-2.415,9.531-6.461,12.333c-4.045,2.802-9.208,3.44-13.817,1.708c-18.066-6.792-37.348-13.022-55.796-12.599   c-17.196,0.392-34.235,8.944-52.274,17.998c-20.715,10.397-42.136,21.148-66.75,21.148c-24.409,0-45.622-10.776-66.135-21.198   c-18.165-9.228-35.322-17.944-52.547-17.944c-17.543,0-34.955,8.726-53.388,17.964c-20.171,10.109-41.029,20.562-64.91,21.174   C79.141,300.879,78.365,300.888,77.592,300.888z"/>
	<path style="fill:#F17BB4;" d="M504.921,225.43c-55.953-34.813-113.089-70.206-168.345-104.433   c-26.538-16.438-53.513-33.148-80.579-49.93v211.249c18.899,9.52,38.561,18.547,60.9,18.547c24.614,0,46.034-10.751,66.75-21.148   c18.04-9.054,35.079-17.606,52.274-17.998c18.448-0.423,37.729,5.806,55.796,12.599c4.609,1.732,9.772,1.094,13.817-1.708   c4.047-2.802,6.461-7.411,6.461-12.333v-22.109C511.997,232.984,509.321,228.168,504.921,225.43z"/>
	<path style="fill:#D11372;" d="M249.569,195.31c-14.456,0-27.991-4.021-37.747-13.777c-26.904-26.905-10.195-82.564,14.199-106.958   c25.574-25.574,67.186-25.573,92.759,0l0,0c25.573,25.574,25.573,67.186,0,92.759C303.232,182.883,274.979,195.31,249.569,195.31z"/>
	<g>
		<path style="fill:#D11372;" d="M79.168,151.333c-2.341,0-4.716-0.549-6.934-1.708c-7.342-3.836-10.184-12.898-6.348-20.241    l6.527-12.491c3.836-7.342,12.898-10.184,20.241-6.348c7.342,3.836,10.184,12.898,6.348,20.241l-6.527,12.491    C89.798,148.401,84.575,151.333,79.168,151.333z"/>
	</g>
	<g>
		<path style="fill:#B21061;" d="M300.516,251.34c-3.229,0-6.482-1.038-9.224-3.18c-6.528-5.1-7.686-14.526-2.586-21.055    l10.614-13.586c5.1-6.529,14.525-7.688,21.055-2.586c6.528,5.1,7.686,14.526,2.586,21.055l-10.614,13.586    C309.389,249.36,304.975,251.34,300.516,251.34z"/>
	</g>
	<g>
		<path style="fill:#BCE9F8;" d="M86.301,242.219c-2.341,0-4.716-0.549-6.934-1.708l-12.491-6.527    c-7.342-3.836-10.184-12.899-6.348-20.241c3.837-7.342,12.9-10.183,20.241-6.348l12.491,6.527    c7.342,3.836,10.184,12.898,6.348,20.241C96.931,239.287,91.708,242.219,86.301,242.219z"/>
	</g>
	<g>
		<path style="fill:#D11372;" d="M165.651,215.441c-1.083,0-2.182-0.118-3.283-0.364c-8.085-1.806-13.176-9.823-11.371-17.909    l3.071-13.755c1.805-8.085,9.822-13.176,17.909-11.371c8.085,1.806,13.176,9.823,11.371,17.909l-3.071,13.755    C178.717,210.69,172.521,215.441,165.651,215.441z"/>
	</g>
	<g>
		<path style="fill:#9CE0F6;" d="M380.5,221.596c-3.947,0-7.887-1.548-10.833-4.623c-5.731-5.982-5.528-15.477,0.454-21.208    l12.449-11.928c5.981-5.731,15.476-5.528,21.208,0.454c5.731,5.982,5.528,15.477-0.454,21.208l-12.449,11.928    C387.969,220.213,384.232,221.596,380.5,221.596z"/>
	</g>
	<g>
		<path style="fill:#BCE9F8;" d="M171.336,112.729c-4.468,0-8.889-1.987-11.846-5.786l-8.658-11.121    c-5.089-6.537-3.916-15.962,2.621-21.051c6.537-5.089,15.961-3.916,21.051,2.622l8.658,11.12    c5.089,6.537,3.916,15.961-2.621,21.051C177.803,111.696,174.557,112.729,171.336,112.729z"/>
	</g>
	<rect y="349.974" style="fill:#FFEB95;" width="511.998" height="67.974"/>
	<path style="fill:#B21061;" d="M318.78,74.575c-16.986-16.986-41.045-22.675-62.783-17.097v137.569   c23.621-1.846,48.535-13.465,62.783-27.712C344.354,141.761,344.354,100.149,318.78,74.575z"/>
	<rect x="255.998" y="349.974" style="fill:#FFDE46;" width="256" height="67.974"/>
</g>















</svg>
