<?xml version="1.0" encoding="iso-8859-1"?>
<!-- Generator: Adobe Illustrator 19.0.0, SVG Export Plug-In . SVG Version: 6.00 Build 0)  -->
<svg version="1.1" id="Capa_1" xmlns="http://www.w3.org/2000/svg" xmlns:xlink="http://www.w3.org/1999/xlink" x="0px" y="0px"
	 viewBox="0 0 512 512" style="enable-background:new 0 0 512 512;" xml:space="preserve">
<path style="fill:#A1CBE0;" d="M52.966,264.828C23.711,264.828,0,288.538,0,317.793V512h256V264.828H52.966z"/>
<path style="fill:#B8DBE0;" d="M67.187,363.167l3.434-2.172c16.207-10.125,36.758-10.125,52.966,0
	c16.207,10.125,36.758,10.125,52.966,0c16.207-10.125,36.758-10.125,52.966,0c7.936,4.988,17.117,7.618,26.483,7.601V264.828H52.966
	C23.711,264.828,0,288.538,0,317.793v39.027l19.359,9.163C34.745,373.23,52.762,372.171,67.187,363.167z"/>
<path style="fill:#F5EADF;" d="M512,317.793c0-29.255-23.711-52.966-52.966-52.966H256V512h256V317.793z"/>
<path style="fill:#F2B9B8;" d="M256,326.621h194.207c9.754,0,17.655,7.901,17.655,17.655v123.586l0,0H256l0,0V326.621L256,326.621z"
	/>
<rect x="256" y="388.414" style="fill:#F28685;" width="211.862" height="17.655"/>
<g>
	<path style="fill:#FFE0A3;" d="M253.881,0L253.881,0c-29.255,25.053-32.653,69.076-7.601,98.33c2.33,2.728,4.873,5.27,7.601,7.601
		l0,0c29.255-25.053,32.653-69.076,7.601-98.33C259.151,4.873,256.609,2.33,253.881,0z"/>
	<path style="fill:#FFE0A3;" d="M395.123,0L395.123,0c-29.255,25.053-32.653,69.076-7.601,98.33c2.33,2.728,4.873,5.27,7.601,7.601
		l0,0c29.255-25.053,32.653-69.076,7.601-98.33C400.393,4.873,397.85,2.33,395.123,0z"/>
</g>
<g>
	<rect x="229.517" y="141.241" style="fill:#A1CBE0;" width="52.966" height="123.586"/>
	<rect x="370.759" y="141.241" style="fill:#A1CBE0;" width="52.966" height="123.586"/>
	<rect x="88.276" y="141.241" style="fill:#A1CBE0;" width="52.966" height="123.586"/>
</g>
<g>
	<rect x="229.517" y="229.517" style="fill:#91C1D9;" width="52.966" height="35.31"/>
	<rect x="370.759" y="229.517" style="fill:#91C1D9;" width="52.966" height="35.31"/>
	<rect x="88.276" y="229.517" style="fill:#91C1D9;" width="52.966" height="35.31"/>
</g>
<path style="fill:#FFE0A3;" d="M112.64,0L112.64,0c-29.255,25.053-32.653,69.076-7.601,98.33c2.33,2.728,4.873,5.27,7.601,7.601l0,0
	c29.255-25.053,32.653-69.076,7.601-98.33C117.91,4.873,115.368,2.33,112.64,0z"/>
<g>
	<rect x="79.448" y="291.31" style="fill:#F2B9B8;" width="17.655" height="17.655"/>
	<rect x="132.414" y="308.966" style="fill:#F2B9B8;" width="17.655" height="17.655"/>
	<rect x="185.379" y="291.31" style="fill:#F2B9B8;" width="17.655" height="17.655"/>
	<rect x="26.483" y="308.966" style="fill:#F2B9B8;" width="17.655" height="17.655"/>
</g>
<g>
</g>
<g>
</g>
<g>
</g>
<g>
</g>
<g>
</g>
<g>
</g>
<g>
</g>
<g>
</g>
<g>
</g>
<g>
</g>
<g>
</g>
<g>
</g>
<g>
</g>
<g>
</g>
<g>
</g>
</svg>
