<?xml version="1.0" encoding="UTF-8" standalone="no"?>
<svg
   xmlns:dc="http://purl.org/dc/elements/1.1/"
   xmlns:cc="http://creativecommons.org/ns#"
   xmlns:rdf="http://www.w3.org/1999/02/22-rdf-syntax-ns#"
   xmlns:svg="http://www.w3.org/2000/svg"
   xmlns="http://www.w3.org/2000/svg"
   xmlns:sodipodi="http://sodipodi.sourceforge.net/DTD/sodipodi-0.dtd"
   xmlns:inkscape="http://www.inkscape.org/namespaces/inkscape"
   height="512pt"
   viewBox="0 0 512.00008 512"
   width="512pt"
   id="svg5182"
   version="1.1"
   inkscape:version="0.91 r13725"
   sodipodi:docname="cake-8.svg">
  <metadata
     id="metadata5256">
    <rdf:RDF>
      <cc:Work
         rdf:about="">
        <dc:format>image/svg+xml</dc:format>
        <dc:type
           rdf:resource="http://purl.org/dc/dcmitype/StillImage" />
      </cc:Work>
    </rdf:RDF>
  </metadata>
  <defs
     id="defs5254" />
  <sodipodi:namedview
     pagecolor="#ffffff"
     bordercolor="#666666"
     borderopacity="1"
     objecttolerance="10"
     gridtolerance="10"
     guidetolerance="10"
     inkscape:pageopacity="0"
     inkscape:pageshadow="2"
     inkscape:window-width="699"
     inkscape:window-height="480"
     id="namedview5252"
     showgrid="false"
     showguides="true"
     inkscape:zoom="0.36875"
     inkscape:cx="320"
     inkscape:cy="320"
     inkscape:window-x="0"
     inkscape:window-y="0"
     inkscape:window-maximized="0"
     inkscape:current-layer="svg5182" />
  <path
     d="m256.535156 83.785156c-4.144531 0-7.5 3.359375-7.5 7.5v50.382813c0 4.144531 3.355469 7.5 7.5 7.5 4.144532 0 7.5-3.355469 7.5-7.5v-50.382813c0-4.140625-3.355468-7.5-7.5-7.5zm0 0"
     fill="#9e9e9e"
     id="path5184" />
  <path
     d="m231.84375 213.335938v-64.066407c0-9.289062 7.535156-16.824219 16.828125-16.824219h15.652344c9.292969 0 16.824219 7.535157 16.824219 16.824219v64.066407"
     fill="#f0f0f0"
     id="path5186" />
  <path
     d="m100.429688 364.371094c0-85.921875 69.652343-155.574219 155.570312-155.574219s155.570312 69.652344 155.570312 155.574219zm0 0"
     fill="#89c8fd"
     id="path5188" />
  <path
     d="m256 208.796875c-7.46875 0-14.8125.539063-22 1.558594 75.5 10.6875 133.570312 75.5625 133.570312 154.015625h44c0-85.921875-69.652343-155.574219-155.570312-155.574219zm0 0"
     fill="#60b6ff"
     id="path5190" />
  <path
     d="m207.671875 329.390625c-4.601563-12.890625 8.285156-34.0625-23.933594-41.425781-32.21875-7.363282-27.617187-32.21875-27.15625-42.804688l-2.3125 1.507813c-32.976562 28.527343-53.839843 70.679687-53.839843 117.703125h175.789062c-1.957031-32.117188-63.964844-22.15625-68.546875-34.980469zm0 0"
     fill="#baeb6c"
     id="path5192" />
  <path
     d="m289.601562 249.300781c-.921874 12.890625 33.136719 9.207031 44.183594 23.933594 11.046875 14.730469 1.839844 40.503906 29.457032 50.632813 27.617187 10.125 39.125-7.828126 39.125-7.828126l1.117187-1.296874c-15.660156-46.5625-52.753906-83.265626-99.554687-98.40625l-.0625 2.128906c.460937 15.1875-13.347657 17.949218-14.265626 30.835937zm0 0"
     fill="#baeb6c"
     id="path5194" />
  <path
     d="m303.929688 216.335938-.0625 2.128906c.226562 7.394531-2.933594 11.84375-6.34375 15.953125 31.1875 20.558593 54.527343 52.035156 64.589843 88.996093.378907.148438.738281.308594 1.128907.453126 27.617187 10.125 39.125-7.828126 39.125-7.828126l1.117187-1.296874c-15.660156-46.5625-52.753906-83.265626-99.554687-98.40625zm0 0"
     fill="#96d629"
     id="path5196" />
  <path
     d="m475.097656 501.433594h-438.195312v-107.742188c0-16.460937 13.347656-29.808594 29.808594-29.808594h378.578124c16.460938 0 29.808594 13.347657 29.808594 29.808594zm0 0"
     fill="#de9252"
     id="path5198" />
  <path
     d="m445.289062 363.882812h-48c16.460938 0 29.808594 13.347657 29.808594 29.8125v107.738282h48v-107.738282c0-16.464843-13.347656-29.8125-29.808594-29.8125zm0 0"
     fill="#d9833b"
     id="path5200" />
  <path
     d="m273.242188 84.8125c0 9.519531-7.71875 17.238281-17.242188 17.238281s-17.242188-7.71875-17.242188-17.238281c0-9.523438 17.242188-39.289062 17.242188-39.289062s17.242188 29.765624 17.242188 39.289062zm0 0"
     id="path5202"
     fill="#fbb540" />
  <path
     d="m256 15c9.652344 0 9.667969-15 0-15-9.652344 0-9.667969 15 0 15zm0 0"
     fill="#fbd940"
     id="path5204" />
  <path
     d="m219.191406 25.4375c9.652344 0 9.667969-15 0-15-9.648437 0-9.667968 15 0 15zm0 0"
     fill="#fbd940"
     id="path5206" />
  <path
     d="m192.535156 52.878906c9.652344 0 9.667969-15 0-15-9.652344 0-9.667968 15 0 15zm0 0"
     fill="#fbd940"
     id="path5208" />
  <path
     d="m183.171875 89.972656c9.652344 0 9.667969-15 0-15-9.652344 0-9.667969 15 0 15zm0 0"
     fill="#fbd940"
     id="path5210" />
  <path
     d="m193.605469 126.777344c9.652343 0 9.667969-15 0-15-9.652344 0-9.667969 15 0 15zm0 0"
     fill="#fbd940"
     id="path5212" />
  <path
     d="m321.605469 124.921875c9.652343 0 9.667969-15 0-15-9.648438 0-9.664063 15 0 15zm0 0"
     fill="#fbd940"
     id="path5214" />
  <path
     d="m330.972656 87.828125c9.652344 0 9.667969-15 0-15-9.652344 0-9.667968 15 0 15zm0 0"
     fill="#fbd940"
     id="path5216" />
  <path
     d="m320.535156 51.023438c9.652344 0 9.667969-15 0-15-9.652344 0-9.667968 15 0 15zm0 0"
     fill="#fbd940"
     id="path5218" />
  <path
     d="m293.09375 24.363281c9.652344 0 9.667969-15 0-15-9.652344 0-9.667969 15 0 15zm0 0"
     fill="#fbd940"
     id="path5220" />
  <path
     d="m36.707031 403.960938c54.820313 0 54.820313 34 109.640625 34 54.824219 0 54.824219-34 109.644532-34 54.828124 0 54.828124 34 109.652343 34s54.824219-34 109.652344-34"
     fill="#fff"
     id="path5222" />
  <path
     d="m445.289062 363.882812h-378.578124c-16.460938 0-29.808594 13.347657-29.808594 29.8125v10.269532c54.621094.082031 54.691406 34 109.445312 34 54.824219 0 54.824219-34 109.644532-34 54.828124 0 54.828124 34 109.652343 34 54.757813 0 54.828125-33.917969 109.453125-34v-10.269532c0-16.464843-13.347656-29.8125-29.808594-29.8125zm0 0"
     fill="#ab632e"
     id="path5224" />
  <path
     d="m445.289062 363.882812h-48c16.460938 0 29.808594 13.347657 29.808594 29.8125v23.230469c11.777344-6.9375 25.089844-12.925781 48-12.960937v-10.273438c0-16.460937-13.347656-29.808594-29.808594-29.808594zm0 0"
     fill="#995929"
     id="path5226" />
  <g
     fill="#fff"
     id="g5228">
    <path
       d="m146.21875 478.265625c9.652344 0 9.667969-15 0-15-9.652344 0-9.667969 15 0 15zm0 0"
       id="path5230" />
    <path
       d="m254.929688 442.921875c9.652343 0 9.667968-15 0-15-9.652344 0-9.667969 15 0 15zm0 0"
       id="path5232" />
    <path
       d="m219.585938 456.84375c9.652343 0 9.667968-15 0-15-9.652344 0-9.667969 15 0 15zm0 0"
       id="path5234" />
    <path
       d="m184.242188 471.839844c9.652343 0 9.667968-15 0-15-9.652344 0-9.667969 15 0 15zm0 0"
       id="path5236" />
    <path
       d="m437.003906 456.84375c9.652344 0 9.667969-15 0-15-9.652344 0-9.667968 15 0 15zm0 0"
       id="path5238" />
    <path
       d="m401.660156 471.839844c9.652344 0 9.667969-15 0-15-9.652344 0-9.667968 15 0 15zm0 0"
       id="path5240" />
    <path
       d="m291.34375 456.84375c9.652344 0 9.667969-15 0-15-9.652344 0-9.667969 15 0 15zm0 0"
       id="path5242" />
    <path
       d="m326.6875 471.839844c9.652344 0 9.667969-15 0-15-9.652344 0-9.667969 15 0 15zm0 0"
       id="path5244" />
    <path
       d="m71.78125 456.84375c9.652344 0 9.667969-15 0-15-9.652344 0-9.667969 15 0 15zm0 0"
       id="path5246" />
    <path
       d="m107.125 471.839844c9.652344 0 9.667969-15 0-15-9.648438 0-9.664062 15 0 15zm0 0"
       id="path5248" />
    <path
       d="m362.566406 478.265625c9.652344 0 9.667969-15 0-15-9.652344 0-9.664062 15 0 15zm0 0"
       id="path5250" />
  </g>
  <path
     fill="#fbb540"
     id="path5798"
     d="m273.242188 84.8125c0 9.519531-7.71875 17.238281-17.242188 17.238281s-17.242188-7.71875-17.242188-17.238281c0-9.523438 17.242188-39.289062 17.242188-39.289062s17.242188 29.765624 17.242188 39.289062zm0 0" />
</svg>
