<svg xmlns="http://www.w3.org/2000/svg" viewBox="0 0 512 512"><path d="M261.479 57.525a121.419 125.854 0 0 1-.004.962" fill="#30faff" stroke="#0000ad"/><path d="M473.092 393.808a255.96 255.56 0 0 0-49.17-330.372A255.96 255.56 0 0 0 89.4 63.78a255.96 255.56 0 0 0-48.49 330.472" fill="#cbfeff"/><path d="M37.607 318.178c54.82 0 54.82 34 109.64 34 54.825 0 54.825-34 109.645-34 54.828 0 54.828 34 109.652 34 54.825 0 54.825-34 109.653-34" fill="#fff"/><path d="M505.4 410.682H8.4a7.5 7.5 0 0 0-7.5 7.5 7.5 7.5 0 0 0 7.5 7.5h497a7.5 7.5 0 0 0 7.5-7.5 7.5 7.5 0 0 0-7.5-7.5zm0 0" fill="#bad8e8"/><path d="M101.33 278.588c0-85.922 69.652-155.574 155.57-155.574 85.918 0 155.57 69.652 155.57 155.574zm0 0" fill="#89c8fd"/><path d="M256.9 123.014c-7.469 0-14.813.539-22 1.558 75.5 10.688 133.57 75.563 133.57 154.016h44c0-85.922-69.652-155.574-155.57-155.574zm0 0" fill="#60b6ff"/><path d="M208.572 243.607c-4.602-12.89 8.285-34.062-23.934-41.425-32.219-7.364-27.617-32.22-27.156-42.805l-2.313 1.508c-32.976 28.527-53.84 70.68-53.84 117.703h175.79c-1.957-32.117-63.965-22.156-68.547-34.98zm0 0M290.501 163.518c-.921 12.89 33.137 9.207 44.184 23.933 11.047 14.73 1.84 40.504 29.457 50.633 27.617 10.125 39.125-7.828 39.125-7.828l1.117-1.297c-15.66-46.562-52.754-83.266-99.554-98.406l-.063 2.129c.46 15.187-13.348 17.949-14.266 30.836zm0 0" fill="#baeb6c"/><path d="M304.83 130.553l-.063 2.129c.227 7.394-2.934 11.843-6.344 15.953 31.188 20.558 54.528 52.035 64.59 88.996.379.148.738.308 1.129.453 27.617 10.125 39.125-7.828 39.125-7.828l1.117-1.297c-15.66-46.562-52.754-83.266-99.554-98.406zm0 0" fill="#96d629"/><g><path d="M298.059 112.867c0 26.894-21.801 48.699-48.7 48.699-26.894 0-48.699-21.805-48.699-48.7 0-26.894 21.805-48.699 48.7-48.699 26.898 0 48.699 21.805 48.699 48.7zm0 0" fill="#ed1c24"/><path d="M257.16 96.867h-15v-8c0-30.602 24.899-55.5 55.5-55.5v15c-22.3 0-40.5 18.199-40.5 40.5zm0 0"/><path d="M297.66 106.265c12.5-4.598 26.301 1.8 30.801 14.3 4.598 12.5-1.8 26.302-14.3 30.802-5.399 2-11.301 2-16.7-.102 0 .5.2 1 .2 1.5 0 13.203-10.7 24-23.899 24-6.703 0-13.102-2.797-17.703-7.7-4.5 12.403-18.2 18.802-30.598 14.302a23.855 23.855 0 0 1-14.902-16.301c-12.297 5-26.297-.899-31.297-13.2-5-12.3.898-26.3 13.2-31.3 12.3-5 26.3.902 31.3 13.199.398.902.7 1.8.898 2.8 9.2-3.8 19.801-1.398 26.5 6 4.399-12.3 17.801-18.698 30.102-14.398.2.098.297.098.5.2 0-.5-.203-1-.203-1.5.101-10.2 6.5-19.2 16.101-22.602zm0 0" fill="#f7a5aa"/></g><g><path d="M475.997 415.65H37.802V307.908c0-16.46 13.348-29.808 29.809-29.808h378.578c16.46 0 29.808 13.347 29.808 29.808zm0 0" fill="#de9252"/><path d="M446.189 278.1h-48c16.46 0 29.808 13.347 29.808 29.812V415.65h48V307.912c0-16.465-13.347-29.812-29.808-29.812zm0 0" fill="#d9833b"/><path d="M446.189 278.1H67.61c-16.461 0-29.809 13.347-29.809 29.812v10.27c54.621.082 54.692 34 109.445 34 54.825 0 54.825-34 109.645-34 54.828 0 54.828 34 109.652 34 54.758 0 54.828-33.918 109.453-34v-10.27c0-16.465-13.347-29.812-29.808-29.812zm0 0" fill="#ffe" stroke="#d8d8cc"/><path d="M446.189 278.1h-48c16.46 0 29.808 13.347 29.808 29.812v23.23c11.778-6.937 25.09-12.925 48-12.96v-10.274c0-16.46-13.347-29.808-29.808-29.808zm0 0" fill="#fafaee" stroke="#d8d8cc" stroke-width=".8"/><g fill="#fafaee"><path d="M147.119 392.482c9.652 0 9.668-15 0-15-9.653 0-9.668 15 0 15zm0 0M220.486 371.06c9.652 0 9.668-15 0-15-9.653 0-9.668 15 0 15zm0 0M292.244 371.06c9.652 0 9.668-15 0-15-9.653 0-9.668 15 0 15zm0 0M72.681 371.06c9.652 0 9.668-15 0-15-9.652 0-9.668 15 0 15zm0 0M108.025 386.057c-71.417 26.773-35.709 13.386 0 0zM363.466 392.482c9.653 0 9.668-15 0-15-9.652 0-9.664 15 0 15zm0 0"/></g><g fill="#c4111c" fill-opacity=".718"><path d="M171.912 328.156c9.652 0 9.668-15 0-15-9.653 0-9.668 15 0 15zm0 0M256.367 301.19c9.653 0 9.668-15 0-15-9.652 0-9.668 15 0 15zm0 0M334.778 330.02c9.652 0 9.668-15 0-15-9.652 0-9.668 15 0 15zm0 0M89.712 311.17c9.652 0 9.668-15 0-15-9.652 0-9.668 15 0 15zm0 0M138.362 326.166c-71.417 26.773-35.708 13.387 0 0zM399.348 322.612c9.652 0 9.668-15 0-15-9.653 0-9.664 15 0 15zm0 0"/></g></g></svg>